<?xml version="1.0" standalone="no"?>
<!DOCTYPE svg PUBLIC "-//W3C//DTD SVG 20010904//EN"
 "http://www.w3.org/TR/2001/REC-SVG-20010904/DTD/svg10.dtd">
<svg version="1.0" xmlns="http://www.w3.org/2000/svg"
 width="512.000000pt" height="512.000000pt" viewBox="0 0 512.000000 512.000000"
 preserveAspectRatio="xMidYMid meet">

<g transform="translate(0.000000,512.000000) scale(0.100000,-0.100000)"
fill="#000000" stroke="none">
<path d="M4920 2261 l0 -1088 -24 4 c-22 5 -25 1 -31 -33 -71 -413 -331 -705
-721 -811 l-99 -27 -954 -4 -954 -3 49 -50 49 -50 -595 3 c-572 4 -598 4 -680
25 -340 87 -590 311 -706 633 -15 39 -22 51 -18 30 10 -58 62 -180 109 -255
86 -137 210 -260 345 -340 38 -23 68 -44 65 -47 -8 -8 102 -55 185 -77 41 -12
125 -26 185 -31 147 -13 2793 -13 2941 0 134 12 256 46 367 102 70 35 78 42
58 47 -21 6 -19 9 29 40 184 119 341 340 403 566 36 131 37 207 30 1343 -5
917 -9 1112 -20 1112 -11 0 -13 -187 -13 -1089z"/>
<path d="M221 944 c0 -11 3 -14 6 -6 3 7 2 16 -1 19 -3 4 -6 -2 -5 -13z"/>
</g>
</svg>
